HIERARCHY
ROOT Hips
{
	OFFSET 0.000000 0.000000 0.000000 
	CHANNELS 6 Xposition Yposition Zposition Yrotation Zrotation Xrotation 
	JOINT Lumbar
	{
		OFFSET 0.000000 0.000000 0.000000 
		CHANNELS 3 Zrotation Xrotation Yrotation
		JOINT Neck
		{
			OFFSET 0.000000 0.445665 0.000000 
			CHANNELS 3 Zrotation Xrotation Yrotation
			End Site
			{
				OFFSET 0.000000 0.227535 0.000000 
			}
		}
		JOINT RightShoulder
		{
			OFFSET 0.019635 0.377685 0.194865 
			CHANNELS 3 Zrotation Xrotation Yrotation
			JOINT RightElbow
			{
				OFFSET 0.000000 -0.243375 0.000000 
				CHANNELS 2 Zrotation Yrotation
				JOINT RightWrist
				{
					OFFSET 0.000000 -0.264825 0.000000 
					CHANNELS 2 Zrotation Xrotation
					End Site
					{
						OFFSET 0.006600 -0.176220 0.000990 
					}
				}
			}
		}
		JOINT LeftShoulder
		{
			OFFSET 0.019635 0.377685 -0.194865 
			CHANNELS 3 Zrotation Xrotation Yrotation
			JOINT LeftElbow
			{
				OFFSET 0.000000 -0.243375 0.000000 
				CHANNELS 2 Zrotation Yrotation
				JOINT LeftWrist
				{
					OFFSET 0.000000 -0.264825 0.000000 
					CHANNELS 2 Zrotation Xrotation
					End Site
					{
						OFFSET 0.006600 -0.176220 -0.000990 
					}
				}
			}
		}
	}
	JOINT RightHip
	{
		OFFSET 0.052140 -0.069960 0.075570 
		CHANNELS 3 Zrotation Xrotation Yrotation
		JOINT RightKnee
		{
			OFFSET 0.000000 -0.402270 0.000000 
			CHANNELS 1 Zrotation
			JOINT RightAnkle
			{
				OFFSET 0.000000 -0.404085 0.000000 
				CHANNELS 3 Zrotation Xrotation Yrotation
				End Site
				{
					OFFSET 0.204105 -0.089430 0.008415 
				}
			}
		}
	}
	JOINT LeftHip
	{
		OFFSET 0.052140 -0.069960 -0.075570 
		CHANNELS 3 Zrotation Xrotation Yrotation
		JOINT LeftKnee
		{
			OFFSET 0.000000 -0.402270 0.000000 
			CHANNELS 1 Zrotation
			JOINT LeftAnkle
			{
				OFFSET 0.000000 -0.404085 0.000000 
				CHANNELS 3 Zrotation Xrotation Yrotation
				End Site
				{
					OFFSET 0.204105 -0.089430 -0.008415 
				}
			}
		}
	}
}
MOTION
Frames: 13
Frame Time: 0.02
-0.21319 -0.92259 0.11831 28.24124 39.81344 -4.22769 -8.80091 1.24284 -2.53756 -46.05898 -4.64945 -0.83078 -32.56397 -34.21667 21.34507 52.55631 81.75787 -2.99567 -10.79633 -18.77834 39.18829 -17.03809 40.87904 -81.97241 -8.0962 11.02411 105.06117 -4.22506 -4.01583 -73.02517 -15.01407 -3.16898 -2.68434 130.40519 -13.92282 -12.24314 -127.0731 -34.01216 -16.41055 -9.34317
-0.21282 -0.92239 0.11838 28.18452 39.47786 -4.18705 -8.78425 1.35971 -2.62647 -46.30827 -4.89085 -0.83078 -32.28379 -34.17211 22.13912 52.62475 81.6911 -2.97895 -10.84571 -18.82536 39.13748 -18.18518 41.4792 -81.96126 -7.96022 11.18632 106.65846 -4.59652 -4.54504 -75.28828 -15.21329 -3.14361 -2.67907 130.40519 -13.92288 -12.39914 -127.02607 -33.17221 -16.6433 -9.3705
-0.21248 -0.92222 0.11837 28.13606 39.09204 -4.16303 -8.72323 1.5007 -2.76987 -46.53215 -5.14622 -0.83078 -31.91687 -34.18006 22.9059 52.53104 81.64906 -2.9949 -10.84712 -18.77515 39.09844 -19.41043 41.93143 -81.95051 -7.80798 11.28952 108.45354 -5.22586 -5.37304 -77.81721 -15.43477 -3.09766 -2.66325 130.40519 -13.92288 -12.56439 -126.95791 -32.14578 -16.73243 -9.47585
-0.21213 -0.92204 0.11838 28.09299 38.74322 -4.13682 -8.69785 1.6309 -2.89566 -46.76409 -5.3908 -0.83078 -31.59895 -34.17267 23.67366 52.52118 81.59536 -2.99343 -10.8709 -18.7648 39.05545 -20.60596 42.44238 -81.93986 -7.66153 11.41315 110.15208 -5.74281 -6.04596 -80.2342 -15.64437 -3.06103 -2.65208 130.40519 -13.92286 -12.70821 -126.904 -31.22552 -16.86333 -9.53522
-0.21176 -0.92181 0.11845 28.0117 38.335 -4.08808 -8.6068 1.76117 -2.99494 -47.01064 -5.65741 -0.83078 -31.24099 -34.13117 24.48939 52.47081 81.54509 -2.99805 -10.88577 -18.77253 39.00938 -21.78643 42.99251 -81.92822 -7.51427 11.55546 111.88339 -6.23714 -6.79805 -82.62049 -15.86063 -3.02482 -2.64162 130.40519 -13.92287 -12.9236 -126.83117 -30.21383 -17.10079 -9.63304
-0.21145 -0.9217 0.11838 28.01032 38.03816 -4.08972 -8.64215 1.8968 -3.15969 -47.22179 -5.88077 -0.83078 -30.94217 -34.17295 25.20138 52.46538 81.49231 -2.99828 -10.91089 -18.71709 38.97199 -23.01164 43.42477 -81.9187 -7.36727 11.64933 113.58975 -6.84062 -7.45839 -85.12944 -16.06984 -2.98251 -2.62707 130.40519 -13.92287 -12.99487 -126.7923 -29.3505 -17.08189 -9.67239
-0.2113 -0.9219 0.11791 28.24705 38.06446 -4.23236 -9.03695 2.04057 -3.50804 -47.32838 -5.97435 -0.83078 -30.86874 -34.4257 25.60165 52.62463 81.43056 -2.9934 -10.96758 -18.53981 38.94821 -24.36112 43.56587 -81.91397 -7.23057 11.60775 115.2013 -7.68682 -7.77717 -87.93479 -16.23745 -2.93177 -2.60474 130.40519 -13.92287 -12.6363 -126.85434 -28.91936 -16.35805 -9.52135
-0.21122 -0.92222 0.1173 28.56088 38.20404 -4.42437 -9.56052 2.1891 -3.91726 -47.4023 -6.02469 -0.83078 -30.84913 -34.76103 25.9039 52.83472 81.36207 -2.98045 -11.03791 -18.29602 38.93328 -25.74853 43.59327 -81.9112 -7.09467 11.52333 116.776 -8.63559 -7.99708 -90.84959 -16.39928 -2.87535 -2.57864 130.40519 -13.92285 -12.13713 -126.95087 -28.64767 -15.38524 -9.31136
-0.21112 -0.92248 0.11677 28.82635 38.28943 -4.58954 -10.02555 2.3356 -4.28749 -47.49977 -6.0988 -0.83078 -30.78054 -35.06249 26.27173 53.01993 81.29703 -2.963 -11.10926 -18.06598 38.91916 -27.10397 43.67352 -81.9085 -6.95603 11.47022 118.35293 -9.53215 -8.27113 -93.6986 -16.57578 -2.8188 -2.55341 130.40519 -13.92287 -11.72224 -127.0302 -28.31855 -14.54664 -9.13547
-0.21099 -0.92275 0.11614 29.14671 38.38407 -4.77262 -10.48945 2.48166 -4.70673 -47.56036 -6.15598 -0.83078 -30.81874 -35.35125 26.55035 53.20483 81.24139 -2.98351 -11.1513 -17.90767 38.88661 -28.52284 43.74388 -81.90301 -6.82718 11.3654 119.99957 -10.45263 -8.51314 -96.62435 -16.70604 -2.7714 -2.53066 130.40519 -13.92283 -11.22392 -127.11511 -27.92134 -13.61621 -8.93119
-0.21093 -0.92304 0.1157 29.37294 38.48755 -4.93146 -10.98643 2.63038 -5.03856 -47.68944 -6.23809 -0.83078 -30.64048 -35.68427 26.99123 53.40728 81.15153 -2.91955 -11.25458 -17.57838 38.89249 -29.81958 43.80952 -81.90224 -6.67776 11.35834 121.48781 -11.35517 -8.79903 -99.41324 -16.92616 -2.70583 -2.50289 130.40519 -13.92283 -10.86298 -127.19702 -27.70392 -12.81737 -8.77127
-0.21107 -0.92336 0.11586 29.30268 38.58317 -4.99727 -11.54739 2.77707 -5.1051 -48.0226 -6.39863 -0.83078 -29.91704 -36.12704 27.91033 53.62138 81.0826 -2.65184 -11.55688 -16.85265 39.0176 -30.75215 43.89242 -81.92733 -6.47708 11.63695 122.56204 -12.08561 -9.1881 -101.79039 -17.43826 -2.57565 -2.4552 130.40519 -13.92296 -10.93998 -127.26145 -27.96337 -12.46404 -8.74555
-0.21128 -0.92369 0.11621 29.13779 38.68471 -5.03909 -12.13673 2.92748 -5.08254 -48.42397 -6.58611 -0.83078 -28.9602 -36.60863 28.99563 53.85548 80.96178 -2.29493 -11.91506 -15.94562 39.1776 -31.56364 43.97476 -81.95467 -6.25466 12.01456 123.47418 -12.80899 -9.62957 -104.025 -18.03398 -2.43107 -2.40442 130.40519 -13.92261 -11.1551 -127.32225 -28.39444 -12.24876 -8.76618
